<svg xmlns="http://www.w3.org/2000/svg" version="1.1" xmlns:xlink="http://www.w3.org/1999/xlink" xmlns:svgjs="http://svgjs.dev/svgjs" width="1000" height="653" viewBox="0 0 1000 653"><g transform="matrix(1,0,0,1,0.1066666666666265,-0.11684302505182131)"><svg viewBox="0 0 375 245" data-background-color="#77d4fc" preserveAspectRatio="xMidYMid meet" height="653" width="1000" xmlns="http://www.w3.org/2000/svg" xmlns:xlink="http://www.w3.org/1999/xlink"><g id="tight-bounds" transform="matrix(1,0,0,1,-0.03976036071776434,0.0438385009765625)"><svg viewBox="0 0 375.07952880859375 244.91232299804688" height="244.91232299804688" width="375.07952880859375"><g><svg></svg></g><g><svg viewBox="0 0 375.07952880859375 244.91232299804688" height="244.91232299804688" width="375.07952880859375"><g transform="matrix(1,0,0,1,-10.220239639282227,-2.287689208984375)"><path xmlns="http://www.w3.org/2000/svg" d="M10.22 244.912v-242.624h375.08v242.624l-17.078 0 0-4.085h12.993v-234.454h-366.91v234.454h16.141l0 4.085z" fill="#000000" fill-rule="nonzero" stroke="none" stroke-width="1" stroke-linecap="butt" stroke-linejoin="miter" stroke-miterlimit="10" stroke-dasharray="" stroke-dashoffset="0" font-family="none" font-weight="none" font-size="none" text-anchor="none" style="mix-blend-mode: normal" data-fill-palette-color="tertiary"></path><g><path xmlns="http://www.w3.org/2000/svg" d="M51.771 238.735h3.14v0.156c-0.572 0.091-0.975 0.224-1.209 0.398-0.234 0.177-0.423 0.493-0.566 0.948v0l-2.223 6.826h-0.215l-2.028-5.949-1.951 5.949h-0.214l-2.634-7.509c-0.052-0.169-0.111-0.293-0.175-0.371-0.065-0.078-0.166-0.137-0.305-0.175-0.135-0.039-0.365-0.078-0.69-0.117v0-0.156h3.491v0.156c-0.39 0.026-0.646 0.068-0.768 0.125-0.125 0.06-0.187 0.148-0.187 0.265v0c0 0.091 0.039 0.247 0.117 0.468v0l1.697 5.188h0.078l1.385-4.252-0.351-1.034c-0.091-0.247-0.204-0.427-0.34-0.538-0.138-0.109-0.382-0.183-0.733-0.222v0-0.156h3.296v0.156c-0.39 0.026-0.646 0.068-0.768 0.124-0.125 0.06-0.187 0.148-0.188 0.266v0c0 0.091 0.039 0.247 0.117 0.468v0l1.717 5.188h0.078l1.502-4.72c0.078-0.26 0.117-0.462 0.117-0.605v0c0-0.208-0.085-0.361-0.254-0.46-0.169-0.096-0.481-0.183-0.936-0.261v0zM97.539 245.015l0.175-0.234 0.078 0.039-0.078 0.215c-0.26 0.689-0.646 1.222-1.158 1.599-0.515 0.377-1.13 0.566-1.846 0.566v0c-0.702 0-1.326-0.182-1.872-0.546-0.546-0.364-0.971-0.871-1.276-1.522-0.307-0.65-0.46-1.398-0.46-2.243v0c0-0.845 0.163-1.599 0.488-2.262 0.325-0.663 0.787-1.177 1.384-1.541 0.598-0.364 1.281-0.546 2.048-0.546v0c0.91 0 1.61 0.269 2.099 0.807 0.486 0.541 0.736 1.325 0.749 2.352v0l-0.117 0.098h-5.266c-0.026 0.338-0.039 0.605-0.039 0.8v0c0 1.183 0.241 2.083 0.721 2.699 0.481 0.619 1.151 0.928 2.01 0.929v0c0.442 0 0.869-0.101 1.279-0.305 0.408-0.2 0.769-0.502 1.081-0.905zM94.808 238.754c-0.611 0-1.118 0.254-1.522 0.761-0.403 0.507-0.663 1.196-0.78 2.067v0l3.784-0.136c0.039-0.156 0.059-0.416 0.059-0.78v0c0-0.702-0.133-1.196-0.398-1.483-0.268-0.286-0.649-0.429-1.143-0.429zM179.852 238.54c-0.741 0-1.404 0.189-1.99 0.565-0.585 0.377-1.043 0.904-1.373 1.58-0.333 0.676-0.499 1.437-0.499 2.282v0c0 0.819 0.153 1.55 0.46 2.193 0.304 0.645 0.727 1.146 1.268 1.502 0.538 0.359 1.152 0.538 1.841 0.538v0c0.715 0 1.337-0.189 1.865-0.566 0.525-0.377 0.918-0.91 1.178-1.599v0l0.078-0.215-0.078-0.039-0.176 0.234c-0.325 0.416-0.679 0.724-1.061 0.925-0.385 0.203-0.818 0.304-1.299 0.304v0c-0.884 0-1.567-0.312-2.048-0.936-0.481-0.624-0.722-1.502-0.721-2.633v0c0-0.754 0.108-1.43 0.323-2.029 0.213-0.598 0.508-1.066 0.886-1.404 0.377-0.338 0.8-0.507 1.268-0.507v0c0.39 0 0.657 0.104 0.799 0.312 0.143 0.208 0.26 0.514 0.352 0.916v0c0.078 0.351 0.166 0.609 0.265 0.773 0.096 0.161 0.274 0.242 0.534 0.242v0c0.221 0 0.397-0.069 0.527-0.207 0.13-0.135 0.195-0.313 0.195-0.534v0c0-0.481-0.25-0.884-0.749-1.21-0.502-0.325-1.117-0.488-1.845-0.487zM221.917 246.693v-13.751h-0.156l-2.262 0.76v0.137l1.15 0.429v12.425l-1.189 0.156v0.156h3.647v-0.156zM266.651 245.015l0.176-0.234 0.078 0.039-0.078 0.215c-0.26 0.689-0.646 1.222-1.159 1.599-0.515 0.377-1.13 0.566-1.845 0.566v0c-0.702 0-1.326-0.182-1.873-0.546-0.546-0.364-0.971-0.871-1.275-1.522-0.307-0.65-0.46-1.398-0.461-2.243v0c0-0.845 0.163-1.599 0.488-2.262 0.325-0.663 0.787-1.177 1.385-1.541 0.598-0.364 1.281-0.546 2.048-0.546v0c0.91 0 1.61 0.269 2.099 0.807 0.486 0.541 0.736 1.325 0.749 2.352v0l-0.117 0.098h-5.267c-0.026 0.338-0.039 0.605-0.039 0.8v0c0 1.183 0.241 2.083 0.722 2.699 0.481 0.619 1.151 0.928 2.009 0.929v0c0.442 0 0.869-0.101 1.279-0.305 0.408-0.2 0.769-0.502 1.081-0.905zM263.92 238.754c-0.611 0-1.118 0.254-1.521 0.761-0.403 0.507-0.663 1.196-0.78 2.067v0l3.784-0.136c0.039-0.156 0.059-0.416 0.058-0.78v0c0-0.702-0.133-1.196-0.398-1.483-0.268-0.286-0.649-0.429-1.143-0.429zM306.2 247.141c-0.494 0-0.901-0.173-1.221-0.518-0.317-0.343-0.476-0.788-0.476-1.335v0c0-0.65 0.295-1.17 0.886-1.56 0.593-0.39 1.598-0.728 3.015-1.014v0-1.775c0-0.754-0.085-1.278-0.253-1.572-0.169-0.291-0.462-0.437-0.878-0.437v0c-0.403 0-0.728 0.107-0.975 0.32-0.247 0.216-0.371 0.506-0.371 0.87v0l0.02 0.526c0 0.325-0.062 0.581-0.187 0.769-0.122 0.19-0.294 0.285-0.515 0.284v0c-0.195 0-0.355-0.065-0.48-0.195-0.122-0.13-0.183-0.299-0.184-0.507v0c0-0.312 0.152-0.654 0.457-1.026 0.307-0.369 0.701-0.677 1.182-0.924v0c0.585-0.325 1.19-0.488 1.814-0.488v0c0.364 0 0.672 0.072 0.924 0.215 0.255 0.143 0.441 0.345 0.558 0.604v0c0.065 0.169 0.107 0.377 0.125 0.624 0.021 0.247 0.031 0.722 0.031 1.424v0 3.726c0 0.468 0.046 0.791 0.137 0.967 0.091 0.174 0.254 0.261 0.488 0.262v0c0.351 0 0.611-0.124 0.78-0.371v0l0.078 0.039c-0.156 0.325-0.364 0.575-0.624 0.749-0.26 0.177-0.54 0.265-0.839 0.265v0c-0.338 0-0.618-0.101-0.839-0.304-0.221-0.2-0.345-0.469-0.37-0.807v0l-0.059-0.02c-0.299 0.377-0.644 0.672-1.034 0.886-0.39 0.216-0.787 0.324-1.19 0.323zM307.039 246.4c0.273 0 0.529-0.061 0.769-0.183 0.242-0.125 0.441-0.304 0.596-0.538v0-2.751c-0.676 0.169-1.2 0.338-1.572 0.507-0.369 0.169-0.632 0.371-0.788 0.605-0.156 0.234-0.234 0.527-0.234 0.878v0c0 0.455 0.111 0.815 0.332 1.08 0.221 0.268 0.52 0.402 0.897 0.402zM354.796 246.693l1.171 0.156v0.156h-3.628v-0.156l1.189-0.156v-4.974c0-0.507-0.013-0.884-0.039-1.131-0.026-0.247-0.078-0.455-0.156-0.625v0c-0.104-0.221-0.276-0.394-0.515-0.518-0.242-0.122-0.519-0.183-0.831-0.184v0c-0.663 0-1.255 0.28-1.775 0.839v0 6.593l1.19 0.156v0.156h-3.647v-0.156l1.19-0.156v-6.73l-1.151-0.429v-0.136l2.204-0.761h0.156v1.229c0.832-0.884 1.703-1.326 2.614-1.326v0c0.403 0 0.771 0.087 1.104 0.261 0.33 0.177 0.567 0.408 0.71 0.694v0c0.091 0.169 0.15 0.399 0.175 0.691 0.026 0.294 0.039 0.805 0.039 1.533v0z" fill="#000000" fill-rule="nonzero" stroke="none" stroke-width="1" stroke-linecap="butt" stroke-linejoin="miter" stroke-miterlimit="10" stroke-dasharray="" stroke-dashoffset="0" font-family="none" font-weight="none" font-size="none" text-anchor="none" style="mix-blend-mode: normal" data-fill-palette-color="secondary"></path></g></g><g transform="matrix(1,0,0,1,29.331764404296877,35.93616149902344)"><svg viewBox="0 0 316.416 173.04" height="173.04" width="316.416"><g><svg viewBox="0 0 316.416 173.04" height="173.04" width="316.416"><g><svg viewBox="0 0 316.416 173.04" height="173.04" width="316.416"><g><svg viewBox="0 0 316.416 173.04" height="173.04" width="316.416"><g><svg viewBox="0 0 316.416 173.04" height="173.04" width="316.416"><g transform="matrix(1,0,0,1,110.88170517184604,45.73408086115994)"><svg viewBox="0 0 94.65258965630792 81.57183827768011" height="81.57183827768011" width="94.65258965630792"><g><svg xmlns="http://www.w3.org/2000/svg" xmlns:xlink="http://www.w3.org/1999/xlink" version="1.1" x="0" y="0" viewBox="4.601004123687744 9.000000953674316 91.32423400878906 78.70345306396484" enable-background="new 0 0 100 100" xml:space="preserve" height="81.57183827768011" width="94.65258965630792" class="icon-o-0" data-fill-palette-color="accent" id="o-0"><g fill="#000000" data-fill-palette-color="accent"><path fill-rule="evenodd" clip-rule="evenodd" d="M56.809 28.396c5.314 0 9.66-4.343 9.66-9.661 0-5.392-4.346-9.735-9.66-9.735-3.896 0-7.34 2.321-8.838 5.691-0.599 1.198-0.898 2.621-0.898 4.044 0 1.422 0.299 2.77 0.898 4.043C49.468 26.074 52.912 28.396 56.809 28.396zM68.439 66.737c1.287-3.343 2.109-6.596 3.402-10.109-4.418 0-6.973-0.146-11.33-0.031-3.445 0-4.902 1.977-6.025 4.374-2.17 5.69-4.343 11.456-6.516 17.147-1.085 2.968-2.278 5.981-3.371 8.952h11.947c2.398-7.02 4.762-13.554 7.562-20.333H68.439zM94.893 53.172c-0.311-0.77-0.664-1.52-1.037-2.26-0.223-0.444-1.34-1.927-1.254-2.373 0.9-4.643 1.93-9.307 2.828-13.95 0.756-3.659-0.803-5.954-2.973-6.853-2.846-1.198-4.572-1.886-7.342-3.084-1.199-0.524-2.398-1.049-3.67-1.572-3.67-1.798-6.143-2.282-9.811 0.224-6.891 4.343-14.584 9.294-21.474 13.713 0.9-2.396 2.298-5.325 3.199-7.723-1.873-0.672-3.516-1.421-5.389-2.17-0.299-0.15-0.599-0.225-0.898-0.375l-0.149 0.375c-2.138 4.518-4.911 9.987-6.56 14.479-1.092 3.415 2.628 6.088 5.994 4.999 0.075 0 10.525-4.801 14.792-6.673 4.793 5.466 9.51 11.008 14.301 16.475-2.395 1.497-2.926 1.913-4.041 5.316-2.965 8.451-5.93 16.902-8.895 25.352H74.98l7.131-20.083c0.748 0.075 2.18 0.199 3.004 0.199 2.367 0 4.678 0.065 6.824-1.118C96.557 63.523 96.598 57.445 94.893 53.172zM90.281 54.306h-7.49l2.324-12.356 0.373-1.871-0.373-0.524-5.244-7.49 5.244 1.274 2.77 0.599-3.508 19.329 5.914 0.008L90.281 54.306zM43.104 55.879c1.573 0.225 3.22 0.523 4.867 0.824 0.697 0.115 1.35 0.23 2.026 0.348l2.269-7.548c-1.597-0.353-31.729-6.375-45.482-9.127l-2.183 7.221c2.719 0.642 4.846 1.173 7.575 1.841-0.824 0.524-1.571 1.124-2.394 1.647 1.796 2.021 3.518 4.043 5.316 6.066 3.07-3.146 6.665-4.568 10.784-4.195 7.338 1.199 12.729 5.317 12.58 13.854 0.133 7.967-7.587 13.511-13.479 13.703-3.71-0.043-7.113-2.171-10.109-4.194-1.871 1.424-3.744 2.848-5.616 4.194 3.295 4.345 8.088 7.265 16.249 7.189 13.287-1.344 19.276-9.361 20.519-20.518C46.53 62.438 45.051 59.398 43.104 55.879z" fill="#000000" data-fill-palette-color="accent"></path></g></svg></g></svg></g><path d="M76.996 53.56C78.004 52.859 79.184 52.46 80.536 52.363 81.887 52.267 83.296 52.488 84.764 53.028V53.028C86.225 53.565 87.464 54.318 88.481 55.285 89.492 56.251 90.163 57.331 90.496 58.526V58.526C90.702 59.288 90.763 60.093 90.68 60.942 90.594 61.797 90.344 62.789 89.929 63.916V63.916L87.664 70.076 87.475 70.006 87.994 68.041 72.755 62.436 71.867 64.266 71.688 64.2 73.954 58.04C74.725 55.943 75.739 54.449 76.996 53.56ZM89.794 59.211C89.338 58.486 88.581 57.764 87.522 57.046 86.461 56.334 85.229 55.72 83.824 55.203V55.203C82.451 54.698 81.192 54.389 80.047 54.275 78.896 54.159 77.915 54.249 77.106 54.544V54.544C76.436 54.791 75.884 55.193 75.451 55.748 75.015 56.31 74.582 57.177 74.151 58.349V58.349L73.317 60.616 88.745 66.29 89.579 64.023C90.033 62.789 90.273 61.826 90.298 61.134 90.324 60.443 90.155 59.802 89.794 59.211ZM122.316 6.36C123.619 5.771 124.973 5.591 126.379 5.817 127.793 6.048 129.091 6.64 130.273 7.593 131.455 8.547 132.384 9.773 133.06 11.272V11.272C133.74 12.777 134.046 14.287 133.98 15.805 133.914 17.322 133.5 18.687 132.737 19.9 131.977 21.105 130.946 22.001 129.644 22.589V22.589C128.335 23.18 126.977 23.362 125.572 23.135 124.157 22.905 122.859 22.313 121.677 21.359 120.496 20.406 119.565 19.176 118.886 17.672V17.672C118.209 16.173 117.904 14.665 117.97 13.148 118.036 11.631 118.45 10.266 119.213 9.053 119.973 7.848 121.007 6.951 122.316 6.36ZM121.051 16.694C122.183 19.202 123.481 20.943 124.944 21.917 126.411 22.882 127.933 23.008 129.511 22.296V22.296C131.083 21.586 131.992 20.362 132.238 18.624 132.475 16.882 132.027 14.757 130.895 12.25V12.25C129.766 9.748 128.468 8.007 127.002 7.027 125.53 6.05 124.008 5.916 122.436 6.626V6.626C120.858 7.338 119.949 8.57 119.708 10.32 119.474 12.068 119.921 14.193 121.051 16.694ZM192.278 24.01L192.607 24.138 192.534 24.325 190.16 23.402C189.797 23.261 189.543 23.1 189.397 22.921 189.257 22.744 189.146 22.464 189.065 22.079V22.079L187.759 15.025C187.683 14.592 187.587 14.303 187.471 14.157 187.359 14.02 187.118 13.879 186.749 13.736V13.736L185.051 13.075 182.375 19.951 184.304 20.907 184.231 21.095 178.574 18.894 178.647 18.706 180.602 19.261 186.49 4.13 184.678 3.208 184.747 3.03 190.563 5.293C192.371 5.997 193.609 6.896 194.277 7.991 194.943 9.093 195.008 10.332 194.473 11.708V11.708C194.054 12.783 193.42 13.552 192.571 14.014 191.722 14.475 190.695 14.623 189.493 14.458V14.458L189.511 14.465 191.165 22.68C191.239 23.062 191.353 23.344 191.505 23.525 191.658 23.707 191.915 23.869 192.278 24.01ZM190.392 5.54L188.3 4.726 185.186 12.728 187.278 13.542C188.504 14.019 189.537 14.047 190.378 13.625 191.225 13.206 191.912 12.321 192.438 10.97V10.97C192.968 9.606 193.061 8.479 192.716 7.589 192.374 6.693 191.599 6.01 190.392 5.54ZM244.552 63.666L243.522 61.775 228.601 68.178 229.27 70.223 229.085 70.303 226.692 64.725 226.877 64.645 227.85 66.429 241.661 60.503 241.622 60.41 224.747 61.189 224.648 60.957 236.583 48.617 236.543 48.525 223.741 54.018C223.377 54.175 223.141 54.331 223.032 54.487 222.928 54.634 222.918 54.85 223.004 55.134V55.134L223.518 56.819 223.333 56.899 221.206 51.94 221.391 51.861 222.265 53.414C222.412 53.672 222.577 53.817 222.758 53.848 222.946 53.877 223.222 53.814 223.586 53.658V53.658L237.184 47.822C237.324 47.638 237.394 47.451 237.393 47.262 237.392 47.072 237.326 46.827 237.197 46.524V46.524L236.748 45.479 236.924 45.404 238.587 49.28 227.669 60.57 227.709 60.662 243.16 59.936 244.728 63.59ZM96.674 118.358C96.358 119.54 95.717 120.609 94.753 121.564 93.787 122.513 92.569 123.257 91.102 123.797V123.797C89.634 124.337 88.203 124.567 86.808 124.486 85.41 124.4 84.199 124.012 83.173 123.324V123.324C82.523 122.877 81.953 122.3 81.464 121.593 80.978 120.892 80.527 119.978 80.112 118.851V118.851L77.847 112.691 78.036 112.622 78.914 114.455 94.153 108.85 93.634 106.885 93.823 106.815 96.088 112.975C96.86 115.072 97.055 116.867 96.674 118.358ZM83.264 122.347C84.075 122.606 85.115 122.664 86.384 122.518 87.656 122.38 88.994 122.052 90.399 121.535V121.535C91.778 121.028 92.941 120.447 93.887 119.791 94.839 119.133 95.527 118.43 95.952 117.68V117.68C96.303 117.058 96.462 116.391 96.429 115.681 96.393 114.98 96.159 114.043 95.728 112.871V112.871L94.894 110.604 79.476 116.275 80.31 118.542C80.764 119.777 81.205 120.666 81.634 121.209 82.062 121.752 82.606 122.131 83.264 122.347ZM132.336 150.583C133.639 151.172 134.672 152.072 135.435 153.286 136.2 154.493 136.613 155.854 136.673 157.368 136.736 158.891 136.429 160.402 135.753 161.901V161.901C135.076 163.399 134.147 164.625 132.965 165.579 131.789 166.536 130.494 167.129 129.08 167.359 127.668 167.583 126.311 167.401 125.008 166.813V166.813C123.705 166.225 122.671 165.327 121.906 164.12 121.149 162.909 120.738 161.545 120.672 160.028 120.606 158.511 120.911 157.003 121.588 155.505V155.505C122.264 154.006 123.195 152.777 124.379 151.817 125.561 150.863 126.855 150.273 128.26 150.046 129.675 149.816 131.034 149.995 132.336 150.583ZM123.753 156.482C122.623 158.984 122.177 161.105 122.414 162.847 122.66 164.585 123.569 165.809 125.141 166.519V166.519C126.719 167.232 128.238 167.104 129.698 166.136 131.168 165.165 132.467 163.429 133.597 160.927V160.927C134.729 158.42 135.175 156.291 134.935 154.54 134.7 152.792 133.794 151.562 132.216 150.849V150.849C130.644 150.14 129.122 150.273 127.65 151.251 126.184 152.231 124.885 153.975 123.753 156.482ZM195.928 164.519L196.247 164.395 196.32 164.582 193.956 165.502C193.587 165.646 193.291 165.7 193.068 165.664 192.839 165.63 192.568 165.498 192.255 165.267V165.267L186.525 160.951C186.17 160.686 185.905 160.541 185.729 160.515 185.551 160.484 185.278 160.54 184.909 160.683V160.683L183.211 161.344 185.886 168.22 187.954 167.621 188.027 167.809 182.37 170.01 182.297 169.822 184.113 168.91 178.226 153.778 176.271 154.334 176.198 154.146 182.014 151.883C183.822 151.18 185.343 151.009 186.578 151.371 187.811 151.727 188.697 152.596 189.234 153.978V153.978C189.651 155.047 189.702 156.039 189.388 156.953 189.076 157.874 188.417 158.678 187.41 159.365V159.365L187.438 159.354 194.199 164.295C194.518 164.524 194.796 164.653 195.031 164.684 195.26 164.717 195.559 164.662 195.928 164.519ZM182.058 152.19L179.966 153.004 183.076 160.997 185.168 160.183C186.394 159.706 187.174 159.028 187.509 158.149 187.844 157.27 187.748 156.155 187.223 154.804V154.804C186.692 153.44 186.002 152.546 185.153 152.12 184.297 151.697 183.265 151.721 182.058 152.19ZM223.241 106.341L222.567 108.396 237.489 114.798 238.514 112.894 238.699 112.973 236.306 118.551 236.121 118.472 236.743 116.537 222.931 110.612 222.892 110.704 235.079 122.406 234.984 122.628 217.817 122.482 217.777 122.574 230.589 128.071C230.947 128.225 231.22 128.287 231.407 128.258 231.586 128.232 231.749 128.091 231.897 127.832V127.832L232.763 126.298 232.948 126.378 230.821 131.336 230.636 131.257 231.158 129.553C231.244 129.268 231.236 129.049 231.134 128.896 231.025 128.74 230.792 128.585 230.435 128.432V128.432L216.827 122.594C216.603 122.622 216.423 122.701 216.286 122.833 216.149 122.964 216.016 123.181 215.886 123.483V123.483L215.438 124.528 215.253 124.449 216.916 120.573 232.621 120.706 232.661 120.613 221.488 109.916 223.056 106.262ZM73.197 89.578C73.197 85.904 76.176 82.926 79.85 82.926 83.524 82.926 86.502 85.904 86.502 89.578 86.502 93.252 83.524 96.231 79.85 96.231 76.176 96.231 73.197 93.252 73.197 89.578ZM229.968 89.578C229.968 85.904 232.947 82.926 236.621 82.926 240.295 82.926 243.273 85.904 243.273 89.578 243.273 93.252 240.295 96.231 236.621 96.231 232.947 96.231 229.968 93.252 229.968 89.578Z" fill="#000000" data-fill-palette-color="primary"></path></svg></g></svg></g></svg></g><g></g></svg></g></svg></g></svg></g><defs></defs></svg><rect width="375.07952880859375" height="244.91232299804688" fill="none" stroke="none" visibility="hidden"></rect></g></svg></g></svg>